<svg width="448" height="444" viewBox="0 0 448 444" fill="none" xmlns="http://www.w3.org/2000/svg">
<path d="M102.926 128.311C100.654 131.219 90.8976 142.853 99.2106 145.486C101.791 146.303 105.148 144.424 107.929 144.696C111.861 145.079 114.072 148.422 115.039 151.893C116.153 155.89 110.007 162.998 112.962 165.147C118.022 168.827 125.31 162.604 129.492 167.546C131.862 170.347 129.37 174.417 130.838 167.809" stroke="#00ADB5" stroke-opacity="0.5" stroke-linecap="round" stroke-linejoin="round"/>
<path d="M217.041 83.0205C219.231 85.9223 224.443 92.4592 226.404 96.1865C228.072 99.3591 225.969 99.2318 224.18 97.9712C222.04 96.4637 222.341 93.2576 222.951 91.0371C225.013 83.5407 238.356 76.6489 239.862 88.1698C240.391 92.2166 236.774 99.0212 231.846 97.4153C225.339 95.2953 225.754 85.3654 230.675 81.6746C235.709 77.8995 243.958 82.2374 243.958 88.4039C243.958 95.2501 235.821 97.3697 232.665 91.3297C229.796 85.84 234.879 80.0974 240.33 79.2755C242.335 78.9732 247.514 81.2891 243.9 82.4938" stroke="#00ADB5" stroke-opacity="0.5" stroke-linecap="round" stroke-linejoin="round"/>
<path d="M327.108 135.158C323.698 138.546 312.921 146.447 321.988 149.523C327.264 151.313 332.148 148.379 335.418 144.374C339.025 139.955 339.637 132.966 333.896 130.096C329.431 127.864 325.584 124.278 321.842 129.891" stroke="#00ADB5" stroke-opacity="0.5" stroke-linecap="round" stroke-linejoin="round"/>
<path d="M443.496 181.502C436.984 185.381 427.096 190.066 437.176 193.732C438.726 194.295 439.734 193.928 441.097 192.971C446.136 189.43 446.432 188.012 446.129 182.555C445.929 178.942 440.645 179.768 438.23 180.975C434.667 182.756 432.183 186.321 430.74 189.928C428.798 194.782 438.835 194.485 440.219 188.641C441.087 184.977 436.896 179.773 434.017 184.252C430.201 190.187 436.023 195.494 439.693 189.285C443.207 183.337 434.995 180.884 432.788 187.822C429.885 196.944 447.139 187.039 440.863 183.901C437.122 182.031 430.805 193.908 437.703 190.952C446.078 187.363 436.708 182.073 436.708 190.455C436.708 197.257 447.958 187.385 440.629 184.72C438.953 184.111 437.299 189.466 438.493 190.66C440.569 192.736 444.178 187.359 443.993 185.423C443.202 177.112 435.066 198.241 444.754 188.553C446.967 186.34 446.876 182.34 443.203 184.691C441.036 186.078 439.665 191.966 443.759 190.601C447.692 189.29 447.691 182.007 443.467 183.696C440.889 184.728 439.955 188.377 437.176 187.822" stroke="#00ADB5" stroke-opacity="0.5" stroke-linecap="round" stroke-linejoin="round"/>
<path d="M386.619 235.746C385.532 236.946 368.179 258.357 376.905 247.449C378.901 244.954 380.734 242.5 383.459 240.749C385.138 239.669 386.756 239.003 388.199 237.56C389.775 235.983 387.54 236.087 387.175 239.374C386.857 242.236 387.1 254.733 386.619 254.705C383.366 254.514 381.233 251.312 378.222 250.258C376.609 249.693 371.826 250.506 373.16 249.438C376.422 246.829 386.413 239.346 383.459 242.3C381.221 244.537 376.622 252.947 378.193 250.199C379.309 248.245 382.328 241.879 381.879 242.943C380.953 245.136 379.342 248.893 379.48 251.311C379.611 253.606 384.17 247.958 384.454 247.39C386.567 243.164 382.195 252.668 383.752 250.404C385.154 248.364 389.894 243.179 386.502 248.268C385.759 249.382 390.016 244.244 389.252 245.342C389.03 245.661 387.101 248.898 388.228 247.771C392.266 243.733 386.316 247.931 385.565 246.805" stroke="#00ADB5" stroke-opacity="0.5" stroke-linecap="round" stroke-linejoin="round"/>
<path d="M351.334 323.168C353.177 320.543 363.712 308.961 355.05 308.451C353.586 308.365 350.567 307.89 349.344 308.89C346.437 311.269 347.698 317.685 351.627 318.399C356.837 319.346 361.719 312.222 356.074 309.475C350.176 306.606 336.254 318.131 342.264 322.875C354.097 332.217 364.797 305.07 349.491 308.978C335.607 312.523 347.838 326.823 354.143 317.609C360.893 307.744 340.079 307.659 343.756 318.692C345.57 324.133 351.523 321.507 352.592 317.112C354.159 310.668 347.751 313.329 347.648 317.785C347.536 322.56 354.894 313.92 350.486 314.303C347.3 314.58 346.985 318.955 344.488 318.955" stroke="#00ADB5" stroke-opacity="0.5" stroke-linecap="round" stroke-linejoin="round"/>
<path d="M141.732 273.664C142.795 278.489 144.891 293.088 144.891 288.146C144.891 284.735 142.286 281.552 141.761 278.14C141.577 276.948 141.956 273.422 140.942 272.611C140.248 272.056 146.806 277.16 148.549 278.14C151.729 279.929 154.009 283.271 156.77 279.72C158.096 278.016 161.996 277.78 162.534 277.35C166.433 274.231 166.076 269.575 166.981 265.501C167.304 264.048 166.484 270.462 166.484 272.347C166.484 274.759 166.919 277.953 167.566 280.218C168.485 283.434 168.117 274.357 167.244 272.611C165.826 269.774 165.957 267.257 165.957 264.184C165.957 262.971 174.761 278.179 173.213 279.34C172.566 279.825 163.945 277.447 161.334 278.287C159.085 279.01 157.031 279.853 154.898 280.92C154.314 281.211 153.352 282.273 153.727 281.973C155.064 280.903 159.155 277.979 157.531 278.521C155.299 279.265 153.108 281.424 151.094 282.617C147.298 284.866 146.07 284.552 144.482 288.41C144.253 288.966 147.086 288.895 147.642 289.053C151.627 290.192 154.132 287.088 157.648 285.66C162.186 283.816 167.403 280.03 172.277 279.457C175.955 279.024 170.362 277.734 170.17 277.35" stroke="#00ADB5" stroke-opacity="0.5" stroke-linecap="round" stroke-linejoin="round"/>
<path d="M342.908 70.9078C352.833 67.7262 368.908 64.067 377.783 56.8056C379.393 55.488 381.887 54.2249 381.323 51.6855C379.203 42.1454 374.59 39.908 365.495 40.9186C360.45 41.4792 355.607 46.1327 350.924 48.0283C346.103 49.9798 341.279 52.5438 336.881 55.3427C332.429 58.1755 335.008 59.5788 335.008 64.4711C335.008 67.1614 336.615 70.9078 339.484 70.9078C340.792 70.9078 344.541 69.8546 340.83 69.8546C337.918 69.8546 333.397 70.296 330.795 68.9183C328.808 67.8663 332.73 65.795 333.662 65.6707C336.991 65.2269 329.848 68.4829 329.127 68.7135C327.645 69.1879 334.476 64.011 330.678 65.2318C326.561 66.5552 332.671 63.0064 333.955 62.3646C335.404 61.6401 334.14 62.7871 334.481 62.189C335.028 61.2321 338.193 57.7164 335.33 60.5798C334.371 61.5385 337.494 58.9448 338.548 58.0929C340.535 56.4886 338.014 58.9227 337.524 59.3218C335.265 61.1605 334.736 59.6768 332.901 60.4921C332.135 60.8329 330.268 61.9632 330.268 60.6384C330.268 58.3526 338.333 57.3114 339.806 57.2445C348.827 56.8344 355.14 52.8553 363.447 50.7785C367.444 49.7791 371.813 48.3398 375.559 46.5654C378.338 45.2494 383.903 41.1292 386.853 41.9719C388.012 42.3031 370.129 52.7084 375.267 49.3156C379.517 46.5091 384.39 44.5383 378.017 49.813C372.911 54.0386 381.893 49.1166 382.61 49.4034C383.898 49.9185 374.681 55.183 381.703 51.9488C384.389 50.7119 386.619 50.6508 386.619 47.7357C386.619 43.7787 387.701 39.0887 382.669 40.9186C376.862 43.0303 372.201 47.5438 366.197 49.3156C362.058 50.537 358.025 52.0795 353.967 53.5287C349.258 55.2104 340.735 57.0908 337.378 61.1943C335.589 63.3811 332.402 71.9037 338.987 68.2161C345.028 64.8332 345.989 57.9889 349.227 52.5925C350.836 49.9121 346.425 58.2537 345.775 61.3113C345.028 64.8278 348.337 68.8747 352.124 68.2161C356.278 67.4937 360.647 61.7573 362.13 58.2685C369.257 41.4999 356.33 57.7638 359.994 61.4283C363.883 65.3173 369.809 55.0151 370.585 52.4755C371.52 49.4154 372.07 45.6434 373.189 42.7326C374.641 38.9575 365.371 43.2093 364.5 43.6396C359.678 46.0227 356.311 49.2016 353.031 53.4117C351.843 54.9356 347.077 62.1087 350.339 63.7397C354.711 65.9255 360.077 59.1316 360.199 55.606C360.611 43.663 350.777 49.7839 344.839 54.465C341.169 57.3575 344.357 63.1387 345.014 62.4816" stroke="#00ADB5" stroke-opacity="0.5" stroke-linecap="round" stroke-linejoin="round"/>
<path d="M209.668 356.346C209.439 356.529 200.774 364.003 200.774 361.876C200.774 360.63 201.733 359.296 202.588 358.482C204.278 356.872 210.954 355.634 209.346 359.565C208.268 362.201 203.86 366.087 202.617 361.115C202.101 359.051 205.644 354.908 207.796 356.668C210.168 358.609 205.068 361.082 203.465 360.208C200.604 358.647 204.04 353.09 206.801 354.24C209.688 355.443 205.717 358.731 204.402 359.389C201.326 360.927 201.756 358.441 200.189 356.873" stroke="#00ADB5" stroke-opacity="0.5" stroke-linecap="round" stroke-linejoin="round"/>
<path d="M66.9489 355.82C69.9847 360.822 75.7666 366.013 69.8747 370.566C68.3549 371.74 59.39 376.435 59.927 370.975C60.581 364.326 70.49 364.178 71.1035 358.219C71.7102 352.325 57.6349 354.546 54.4266 350.553C52.4167 348.052 50.7959 342.509 51.2667 339.318C51.4501 338.075 54.6018 335.663 54.2803 337.914C53.6917 342.034 40.4067 352.588 48.2825 356.054C53.5628 358.377 54.9251 352.494 58.8152 351.08C66.8283 348.166 54.8362 369.777 54.8362 364.246" stroke="#00ADB5" stroke-opacity="0.5" stroke-linecap="round" stroke-linejoin="round"/>
<path d="M325.002 424.283C322.563 430.054 317.629 447.84 317.629 441.574C317.629 440.597 317.818 439.825 318.156 438.912C319.741 434.621 321.577 430.628 324.241 426.857C325.696 424.799 327.429 418.772 329.508 423.346C330.478 425.48 333.253 431.422 332.082 433.762C330.614 436.7 326.054 438.385 323.013 438.502C322.22 438.532 313.913 439.624 316.605 437.156C319.769 434.256 322.83 425.436 327.606 424.839C328.343 424.746 329.884 425.239 330.532 425.599C331.673 426.233 330.283 427.378 329.742 428.262C329.093 429.322 323.959 436.483 323.949 436.161C323.803 431.362 328.727 424.395 331.38 420.772C332.332 419.473 327.269 428.291 326.114 430.281C325.22 431.82 326.386 435.092 322.369 434.289" stroke="#00ADB5" stroke-opacity="0.5" stroke-linecap="round" stroke-linejoin="round"/>
<path d="M161.744 0.864777C159.394 10.0569 157.301 18.8151 156.448 28.1915C156.363 29.1294 155.77 29.7358 156.36 30.4736C157.239 31.5717 159.562 24.5897 160.457 22.7203C163.29 16.7949 166.484 14.4566 166.484 7.18445C166.484 6.13512 166.484 0.0956043 166.484 4.08313C166.484 7.4685 167.125 10.8144 166.893 14.2063C166.718 16.77 164.257 23.6889 166.074 21.8718C168.879 19.0672 166.632 5.0049 162.241 4.63903C156.248 4.13963 153.359 17.129 152.674 21.1696C151.877 25.8708 155.192 27.839 158.847 24.1832C163.837 19.1934 164.919 8.93473 160.632 3.08837C154.742 -4.94359 150.877 9.5488 150.392 13.0945C149.295 21.1151 153.775 23.6853 159.081 17.9806C161.033 15.8824 164.968 12.2543 164.143 8.99843C163.045 4.66756 156.644 8.87305 155.366 10.7539C153.553 13.4209 153.577 20.064 156.507 21.9596C159.242 23.7295 161.904 16.3957 161.598 14.5574C160.298 6.76106 145.602 19.1374 152.908 23.5688C159.267 27.4256 163.482 10.1709 155.658 12.3046C153.48 12.8987 148.305 18.7705 152.791 18.7705" stroke="#00ADB5" stroke-opacity="0.5" stroke-linecap="round" stroke-linejoin="round"/>
<path d="M22.1844 150.957C19.8179 157.662 18.1142 161.942 12.1198 165.703C10.6147 166.647 8.62568 168.318 8.31626 170.209C7.65516 174.249 14.0278 178.701 17.6495 177.494C25.2807 174.95 13.733 167.397 12.5001 165.205C10.3535 161.389 18.1119 154.534 21.687 156.545C24.4699 158.111 25.7036 163.566 24.0569 166.229C21.6581 170.11 16.5021 170.263 12.4709 169.653C9.26036 169.166 2.82957 169.828 4.71756 174.597C7.08001 180.565 18.2299 177.437 19.9023 172.374C21.5306 167.444 12.7155 165.586 14.6067 160.963C15.9057 157.788 20.0073 153.824 23.6473 153.824C28.0074 153.824 23.6532 161.969 23.0036 163.245C20.1353 168.883 15.7467 169.445 10.1888 170.969C-0.271883 173.837 10.9973 174.241 11.6516 170.969" stroke="#00ADB5" stroke-opacity="0.5" stroke-linecap="round" stroke-linejoin="round"/>
<path d="M9.54496 223.107C8.42701 227.316 5.12168 234.501 5.44888 239.081C5.60218 241.228 6.18853 234.84 6.44364 232.703C6.92973 228.632 7.48579 224.034 9.66199 220.473C10.0482 219.841 18.9802 230.991 19.7852 232.82C21.9395 237.716 19.2423 236.784 15.8646 238.379C13.9874 239.266 1.17725 243.787 1.17725 242.592C1.17725 241.34 3.59225 238.795 4.16154 237.735C5.94336 234.42 7.85512 230.258 8.60871 226.559C10.2182 218.658 9.01832 234.917 9.01832 236.155C9.01832 236.907 9.31042 241.305 7.55543 241.305C5.35905 241.305 9.0403 237.171 9.77902 235.102C10.5624 232.909 13.6807 226.444 12.9096 224.131C11.8175 220.854 11.2711 230.89 11.1541 234.341C11.0748 236.681 9.94277 240.586 11.7685 236.799C12.3503 235.592 14.2283 230.645 14.1969 231.006C13.9322 234.051 12.7048 237.19 12.7048 240.252C12.7048 243.385 14.3578 233.298 17.2105 232.001C17.9198 231.678 16.9179 237.625 16.9179 238.496C16.9179 240.081 18.4393 232.405 18.4393 233.99C18.4393 234.432 17.8081 237.103 17.3275 236.272C15.358 232.871 13.8762 230.768 9.83754 229.543C7.99817 228.985 2.15161 229.368 4.07376 229.368C5.33723 229.368 7.32154 224.971 8.72574 226.12C10.5888 227.644 8.03194 232.51 7.4384 234.166C6.46656 236.877 5.85812 233.064 8.25762 233.347C10.7578 233.641 8.20705 242.873 9.60348 240.778C10.2516 239.806 12.2148 235.01 12.1489 235.57C10.8741 246.406 11.1394 232.608 13.2314 235.746" stroke="#00ADB5" stroke-opacity="0.5" stroke-linecap="round" stroke-linejoin="round"/>
<path d="M270.232 79.8607C276.932 79.5298 283.403 82.0068 282.344 74.0676C281.82 70.1336 279.615 63.7021 280.764 59.8484C281.985 55.7569 289.476 46.5299 283.076 43.6396C277.709 41.2159 270.695 48.0698 269.705 52.7095C269.293 54.6392 269.381 60.6676 272.572 60.6676C274.984 60.6676 276.524 58.2999 278.629 60.4043C281.38 63.1553 281.871 65.6647 279.916 69.1231C275.224 77.4243 256.661 68.1522 266.662 58.1514C268.033 56.7806 273.455 50.4939 276.025 52.2999C279.56 54.7844 279.082 61.2529 277.254 64.4711C275.43 67.6802 268.738 71.0406 266.106 66.9287C264.806 64.8968 265.428 63.5348 267.598 63.5348" stroke="#00ADB5" stroke-opacity="0.5" stroke-linecap="round" stroke-linejoin="round"/>
<path d="M326.337 129.146C326.955 128.896 346.221 119.385 345.325 124.611C344.844 127.415 345.165 130.031 345.559 132.832C345.71 133.904 348.321 142.253 345.705 142.253C340.831 142.253 336.073 139.805 331.193 140.732C329.17 141.116 325.141 142.502 324.991 139.269C324.878 136.844 322.864 125.945 327.653 127.01C331.601 127.887 331.772 124.754 328.97 131.72C328.572 132.709 325.957 140.14 326.395 139.795C330.776 136.353 333.179 129.735 337.191 125.722C339.697 123.217 335.402 133.273 334.88 134.529C332.214 140.947 339.028 129.09 339.795 127.917C343.163 122.766 340.606 131.987 340.088 133.505C338.53 138.068 343.319 129.548 345.237 128.414C351.593 124.658 345.588 137.63 344.242 134.939" stroke="#00ADB5" stroke-opacity="0.5" stroke-linecap="round" stroke-linejoin="round"/>
<path d="M274.445 228.373C274.747 236.114 274.612 240.337 281.174 235.453C283.036 234.068 282.245 237.346 281.788 238.145C281.026 239.48 276.555 246.189 281.057 243.616C282.197 242.965 285.27 241.665 285.27 244.172C285.27 244.568 283.892 249.412 285.241 248.063C287.451 245.853 287.491 237.521 287.611 234.283C287.637 233.576 287.946 232.754 287.318 233.113C284.09 234.957 282.557 244.615 280.881 248.385C279.435 251.64 275.264 247.805 272.865 246.279C268.318 243.385 271.177 245.44 271.285 245.225" stroke="#00ADB5" stroke-opacity="0.5" stroke-linecap="round" stroke-linejoin="round"/>
<path d="M238.107 297.363C238.087 297.608 237.469 312.726 237.58 305.379C237.614 303.137 237.549 300.893 237.58 298.65C237.667 292.281 238.804 295.236 241.559 297.86C242.822 299.063 247.457 301.66 246.708 304.092C246.488 304.809 239.048 306.104 237.872 306.55C236.991 306.884 231.787 310.161 231.787 310.002C231.787 306.089 233.165 301.854 233.63 297.948C234.615 289.677 240.338 311.818 240.71 306.228C240.798 304.912 240.74 297.077 240.74 299.031C240.74 300.485 241.793 308.241 241.793 303.156C241.793 302.005 241.793 300.854 241.793 299.703C241.793 299.161 242.089 301.758 242.29 301.254C243.02 299.43 241.793 295.762 241.793 300.23C241.793 305.246 240.387 301.634 237.317 301.634C234.69 301.634 233.186 311.26 234.537 309.007C235.721 307.035 233.389 299.002 234.42 303.127C234.96 305.286 236.257 302.899 237.053 302.103" stroke="#00ADB5" stroke-opacity="0.5" stroke-linecap="round" stroke-linejoin="round"/>
</svg>
